<svg width="414" height="152" viewBox="0 0 414 152" fill="none" xmlns="http://www.w3.org/2000/svg">
<path d="M7.29228 125.457C9.32182 125.457 11.1534 125.785 12.7869 126.44C14.4204 127.096 15.8003 128 16.9264 129.151C18.0526 130.302 18.9189 131.657 19.5252 133.216C20.1316 134.775 20.4348 136.458 20.4348 138.265C20.4348 140.072 20.1316 141.755 19.5252 143.314C18.9188 144.873 18.0464 146.235 16.9079 147.398C15.7693 148.561 14.3895 149.477 12.7683 150.145C11.1472 150.814 9.32182 151.148 7.29228 151.148H0.0527344V125.457H7.29228ZM5.13897 146.136H7.32939C8.54217 146.136 9.64357 145.938 10.6336 145.542C11.6236 145.146 12.4651 144.601 13.1582 143.908C13.8512 143.215 14.3833 142.392 14.7546 141.439C15.1258 140.486 15.3114 139.441 15.3114 138.302C15.3114 137.139 15.1258 136.075 14.7546 135.109C14.3833 134.144 13.8512 133.321 13.1582 132.64C12.4651 131.96 11.6236 131.434 10.6336 131.063C9.64358 130.691 8.54218 130.506 7.32939 130.506H5.13897V146.136Z" fill="#963CBD"/>
<path d="M29.1594 151.148L22.4025 125.457H27.86L31.5726 141.087L35.6936 125.457H40.26L44.381 141.049L48.0936 125.457H53.4768L46.7199 151.148H42.1534L37.9211 135.629L33.6887 151.148H29.1594Z" fill="#963CBD"/>
<path d="M75.5296 125.457C77.5591 125.457 79.3907 125.785 81.0242 126.44C82.6577 127.096 84.0376 128 85.1637 129.151C86.2899 130.302 87.1562 131.657 87.7625 133.216C88.3689 134.775 88.6721 136.458 88.6721 138.265C88.6721 140.072 88.3689 141.755 87.7625 143.314C87.1561 144.873 86.2837 146.235 85.1452 147.398C84.0066 148.561 82.6268 149.477 81.0056 150.145C79.3845 150.814 77.5591 151.148 75.5296 151.148H68.29V125.457H75.5296ZM73.3763 146.136H75.5667C76.7795 146.136 77.8809 145.938 78.8709 145.542C79.8609 145.146 80.7024 144.601 81.3955 143.908C82.0885 143.215 82.6206 142.392 82.9919 141.439C83.3631 140.486 83.5488 139.441 83.5488 138.302C83.5488 137.139 83.3631 136.075 82.9919 135.109C82.6206 134.144 82.0885 133.321 81.3955 132.64C80.7024 131.96 79.8609 131.434 78.8709 131.063C77.8809 130.691 76.7795 130.506 75.5667 130.506H73.3763V146.136Z" fill="#963CBD"/>
<path d="M92.6817 125.457H107.569V130.506H97.7308V135.518H103.819V140.567H97.7308V146.173H107.829V151.148H92.6817V125.457Z" fill="#963CBD"/>
<path d="M120.081 125.197C121.194 125.197 122.209 125.308 123.125 125.531C124.041 125.754 124.87 126.044 125.612 126.403C126.355 126.762 127.017 127.177 127.599 127.647C128.18 128.117 128.681 128.6 129.102 129.095L125.427 132.548C124.709 131.805 123.905 131.205 123.014 130.747C122.123 130.289 121.046 130.06 119.784 130.06C118.719 130.06 117.828 130.271 117.111 130.691C116.393 131.112 116.034 131.607 116.034 132.176C116.034 132.746 116.226 133.191 116.609 133.513C116.993 133.835 117.556 134.132 118.299 134.404C118.893 134.627 119.548 134.849 120.266 135.072C120.984 135.295 121.708 135.518 122.438 135.74C123.168 135.963 123.88 136.205 124.573 136.464C125.266 136.724 125.909 137.003 126.503 137.3C127.79 137.943 128.694 138.754 129.214 139.731C129.733 140.709 129.993 141.953 129.993 143.463C129.993 144.972 129.696 146.235 129.102 147.249C128.508 148.264 127.735 149.081 126.782 149.7C125.829 150.319 124.771 150.764 123.608 151.036C122.444 151.309 121.306 151.445 120.192 151.445C117.42 151.445 115.18 151.067 113.472 150.312C111.764 149.557 110.44 148.512 109.5 147.175C110.143 146.606 110.768 146.055 111.375 145.523C111.981 144.991 112.594 144.44 113.212 143.871C113.98 144.663 114.92 145.331 116.034 145.876C117.148 146.42 118.521 146.693 120.155 146.693C121.64 146.693 122.834 146.439 123.737 145.931C124.641 145.424 125.093 144.725 125.093 143.834C125.093 143.215 124.913 142.689 124.554 142.256C124.195 141.823 123.731 141.458 123.162 141.161C122.593 140.864 121.943 140.604 121.213 140.381C120.483 140.158 119.74 139.948 118.985 139.75C118.23 139.552 117.5 139.348 116.795 139.137C116.09 138.927 115.465 138.661 114.92 138.339C113.633 137.597 112.693 136.755 112.099 135.815C111.505 134.874 111.208 133.637 111.208 132.102C111.208 131.137 111.406 130.24 111.802 129.411C112.198 128.581 112.773 127.851 113.528 127.22C114.283 126.589 115.211 126.094 116.312 125.735C117.414 125.376 118.67 125.197 120.081 125.197Z" fill="#963CBD"/>
<path d="M133.706 125.457H148.593V130.506H138.755V135.518H144.844V140.567H138.755V146.173H148.853V151.148H133.706V125.457Z" fill="#963CBD"/>
<path d="M166.971 141.198V125.457H172.02V151.148H167.119L157.726 135.443V151.148H152.677V125.457H157.578L166.971 141.198Z" fill="#963CBD"/>
<path d="M184.16 151.148L174.99 125.457H180.596L186.276 142.72L191.993 125.457H197.488L188.281 151.148H184.16Z" fill="#963CBD"/>
<path d="M209.071 124.974C210.68 124.974 212.159 125.259 213.508 125.828C214.857 126.397 216.014 127.245 216.979 128.371C217.944 129.497 218.699 130.896 219.244 132.566C219.788 134.237 220.06 136.161 220.06 138.339C220.06 140.517 219.788 142.435 219.244 144.094C218.699 145.752 217.944 147.138 216.979 148.252C216.014 149.366 214.857 150.207 213.508 150.776C212.159 151.346 210.68 151.63 209.071 151.63C207.462 151.63 205.99 151.346 204.653 150.776C203.317 150.207 202.166 149.366 201.201 148.252C200.235 147.138 199.48 145.752 198.936 144.094C198.391 142.435 198.119 140.517 198.119 138.339C198.119 136.161 198.391 134.237 198.936 132.566C199.48 130.896 200.235 129.497 201.201 128.371C202.166 127.245 203.317 126.397 204.653 125.828C205.99 125.259 207.462 124.974 209.071 124.974ZM209.071 130.023C207.215 130.023 205.767 130.716 204.728 132.102C203.688 133.488 203.168 135.567 203.168 138.339C203.168 141.111 203.688 143.184 204.728 144.558C205.767 145.932 207.215 146.618 209.071 146.618C210.928 146.618 212.388 145.932 213.452 144.558C214.516 143.184 215.048 141.111 215.048 138.339C215.048 135.567 214.516 133.488 213.452 132.102C212.388 130.716 210.928 130.023 209.071 130.023Z" fill="#963CBD"/>
<path d="M224.33 125.457H229.379V146.173H240.702V151.148H224.33V125.457Z" fill="#963CBD"/>
<path d="M250.875 151.148L241.705 125.457H247.311L252.991 142.72L258.708 125.457H264.203L254.996 151.148H250.875Z" fill="#963CBD"/>
<path d="M267.322 125.457H272.371V151.148H267.322V125.457Z" fill="#963CBD"/>
<path d="M301.737 125.457V151.148H296.688V137.782L291.008 151.148H288.261L282.58 137.782V151.148H277.531V125.457H282.729L289.634 141.643L296.54 125.457H301.737Z" fill="#963CBD"/>
<path d="M306.786 125.457H321.674V130.506H311.836V135.518H317.924V140.567H311.836V146.173H321.934V151.148H306.786V125.457Z" fill="#963CBD"/>
<path d="M340.051 141.198V125.457H345.1V151.148H340.2L330.807 135.443V151.148H325.758V125.457H330.658L340.051 141.198Z" fill="#963CBD"/>
<path d="M360.173 151.148H355.161V130.506H348.219V125.457H367.042V130.506H360.173V151.148Z" fill="#963CBD"/>
<path d="M380.333 124.974C381.942 124.974 383.42 125.259 384.769 125.828C386.118 126.397 387.275 127.245 388.241 128.371C389.206 129.497 389.961 130.896 390.505 132.566C391.05 134.237 391.322 136.161 391.322 138.339C391.322 140.517 391.05 142.435 390.505 144.094C389.961 145.752 389.206 147.138 388.241 148.252C387.275 149.366 386.118 150.207 384.769 150.776C383.42 151.346 381.942 151.63 380.333 151.63C378.724 151.63 377.251 151.346 375.915 150.776C374.578 150.207 373.427 149.366 372.462 148.252C371.497 147.138 370.742 145.752 370.197 144.094C369.653 142.435 369.381 140.517 369.381 138.339C369.381 136.161 369.653 134.237 370.197 132.566C370.742 130.896 371.497 129.497 372.462 128.371C373.427 127.245 374.578 126.397 375.915 125.828C377.251 125.259 378.724 124.974 380.333 124.974ZM380.333 130.023C378.476 130.023 377.029 130.716 375.989 132.102C374.949 133.488 374.43 135.567 374.43 138.339C374.43 141.111 374.949 143.184 375.989 144.558C377.029 145.932 378.476 146.618 380.333 146.618C382.189 146.618 383.649 145.932 384.714 144.558C385.778 143.184 386.31 141.111 386.31 138.339C386.31 135.567 385.778 133.488 384.714 132.102C383.649 130.716 382.189 130.023 380.333 130.023Z" fill="#963CBD"/>
<path d="M404.019 125.197C405.133 125.197 406.148 125.308 407.063 125.531C407.979 125.754 408.808 126.044 409.551 126.403C410.293 126.762 410.955 127.177 411.537 127.647C412.119 128.117 412.62 128.6 413.041 129.095L409.365 132.548C408.647 131.805 407.843 131.205 406.952 130.747C406.061 130.289 404.984 130.06 403.722 130.06C402.658 130.06 401.767 130.271 401.049 130.691C400.331 131.112 399.972 131.607 399.972 132.176C399.972 132.746 400.164 133.191 400.548 133.513C400.931 133.835 401.494 134.132 402.237 134.404C402.831 134.627 403.487 134.849 404.205 135.072C404.922 135.295 405.646 135.518 406.377 135.74C407.107 135.963 407.818 136.205 408.511 136.464C409.204 136.724 409.848 137.003 410.442 137.3C411.729 137.943 412.632 138.754 413.152 139.731C413.672 140.709 413.932 141.953 413.932 143.463C413.932 144.972 413.635 146.235 413.041 147.249C412.447 148.264 411.673 149.081 410.72 149.7C409.767 150.319 408.709 150.764 407.546 151.036C406.383 151.309 405.244 151.445 404.13 151.445C401.358 151.445 399.118 151.067 397.411 150.312C395.703 149.557 394.379 148.512 393.438 147.175C394.082 146.606 394.707 146.055 395.313 145.523C395.919 144.991 396.532 144.44 397.151 143.871C397.918 144.663 398.859 145.331 399.972 145.876C401.086 146.42 402.46 146.693 404.093 146.693C405.578 146.693 406.773 146.439 407.676 145.931C408.579 145.424 409.031 144.725 409.031 143.834C409.031 143.215 408.852 142.689 408.493 142.256C408.134 141.823 407.67 141.458 407.1 141.161C406.531 140.864 405.882 140.604 405.151 140.381C404.421 140.158 403.679 139.948 402.924 139.75C402.169 139.552 401.439 139.348 400.733 139.137C400.028 138.927 399.403 138.661 398.859 138.339C397.572 137.597 396.631 136.755 396.037 135.815C395.443 134.874 395.146 133.637 395.146 132.102C395.146 131.137 395.344 130.24 395.74 129.411C396.136 128.581 396.711 127.851 397.466 127.22C398.221 126.589 399.149 126.094 400.251 125.735C401.352 125.376 402.608 125.197 404.019 125.197Z" fill="#963CBD"/>
<path fill-rule="evenodd" clip-rule="evenodd" d="M150.966 3.46584C151.684 2.20013 153.007 1.16859 154.502 0.708242C155.291 0.465265 158.335 0.413222 172.458 0.401544C190.477 0.386388 192.21 0.458094 196.51 1.39662C208.613 4.03786 218.93 13.3001 222.863 25.0537C226.438 35.7376 224.754 47.6378 218.299 57.3107C216.21 60.4402 212.312 65.1276 211.799 65.1276C211.363 65.1276 204.931 56.4813 204.93 55.8949C204.929 55.7182 205.517 54.9219 206.235 54.1249C208.895 51.1704 210.714 48.093 211.879 44.574C212.99 41.2171 213.199 39.9099 213.197 36.3426C213.196 33.4853 213.125 32.7807 212.649 30.8511C210.543 22.3197 204.52 15.7596 196.354 13.1015C192.998 12.0091 192.93 12.0058 172.969 11.9833L154.428 11.9626L153.385 11.4123C152.291 10.8354 151.301 9.84975 150.694 8.73319C150.431 8.24887 150.333 7.60043 150.332 6.32857C150.33 4.75635 150.392 4.47813 150.966 3.46584ZM150.445 24.8744C150.947 23.1476 152.256 21.8153 154.096 21.1576C154.684 20.9476 159.213 20.8917 175.939 20.8882C196.721 20.8837 197.055 20.8901 197.964 21.3002C199.085 21.8069 200.303 22.9475 200.9 24.0501C201.34 24.8633 201.345 24.9833 201.451 39.6207C201.555 54.1442 201.564 54.3922 202.009 55.7034C202.257 56.4359 202.8 57.6081 203.216 58.3085C204.012 59.6492 208.984 66.2261 213.879 72.4146C215.478 74.4353 219.059 78.9926 221.837 82.5419C227.144 89.3207 227.591 89.8997 228.027 89.8908C228.073 89.8901 228.119 89.8824 228.171 89.8748C228.398 89.8418 229.14 89.1184 229.818 88.2673C233.23 83.985 242.014 72.8887 243.919 70.4545C245.109 68.9332 247.232 66.2228 248.636 64.4308C251.483 60.7977 251.981 59.9462 252.263 58.2241C252.565 56.3803 252.52 32.8997 252.214 32.5936C252.032 32.4108 249.953 32.3476 244.13 32.3476C235.193 32.3476 234.882 32.3 233.249 30.6829C230.838 28.2961 230.76 24.9221 233.062 22.6335C233.431 22.266 233.711 21.9753 234.034 21.7454C235.294 20.8487 237.211 20.8747 247.661 20.8747C258.58 20.8747 259.043 20.8903 260.12 21.2935C261.456 21.7936 262.797 23.0284 263.343 24.2625C263.722 25.1191 263.737 25.8217 263.731 42.5623C263.727 53.2995 263.646 60.3902 263.519 61.0642C263.175 62.8971 262.515 64.6301 261.654 65.9615C260.586 67.6149 255.09 74.6648 244.975 87.3566C243.269 89.4977 239.866 93.8307 237.412 96.9857C234.958 100.141 232.663 103.026 232.311 103.397C230.888 104.896 228.381 105.578 226.405 105.004C224.77 104.529 223.825 103.737 221.93 101.254C219.64 98.2543 206.844 81.9336 201.486 75.1787C194.492 66.3613 192.545 63.5383 191.388 60.5389C190.103 57.205 190.111 57.3043 190.028 44.5455C189.976 36.6745 189.88 32.7894 189.733 32.6116C189.424 32.2397 162.318 32.2222 161.947 32.5937C161.59 32.9498 161.59 68.6231 161.947 68.9793C162.309 69.3417 169.275 69.3222 169.774 68.9571C170.119 68.7051 170.142 67.915 170.172 55.5891L170.203 42.4889L170.787 41.2994C171.85 39.1349 173.954 37.9422 176.395 38.1207C178.496 38.274 180.131 39.3933 181.214 41.4191L181.676 42.2841L181.778 55.2717C181.87 66.8536 181.916 68.2812 182.207 68.4642C182.605 68.7156 185.592 67.7729 188.633 66.4367C189.755 65.9435 190.734 65.6086 190.81 65.6926C191.522 66.4852 197.349 74.3844 197.349 74.5568C197.349 74.8802 191.913 77.4536 189.359 78.3393C186.557 79.3107 183.838 79.9858 181.138 80.3801C179.358 80.6399 176.717 80.6978 166.694 80.6962L154.428 80.694L153.402 80.2166C152.344 79.7239 151.326 78.7296 150.693 77.5711C150.352 76.9485 150.326 75.3381 150.269 51.2986C150.224 32.3676 150.27 25.4768 150.445 24.8744ZM232.941 41.2322C233.56 40.0675 234.538 39.1382 235.759 38.5544C236.63 38.1379 237.022 38.0745 238.324 38.1412C240.598 38.2578 242.148 39.2421 243.203 41.2413L243.753 42.2841L243.752 47.9181C243.75 53.1822 243.719 53.6592 243.28 55.1821C242.545 57.7267 241.693 59.0955 237.141 65.037C232.081 71.6427 224.837 80.8575 224.579 81.0166C224.235 81.2299 223.807 80.799 221.724 78.1371C217.639 72.92 217.383 72.5521 217.526 72.1037C217.599 71.8725 218.509 70.6003 219.548 69.2762C220.586 67.9522 222.493 65.4989 223.785 63.8242C225.077 62.1495 227.322 59.2456 228.774 57.3707C230.226 55.4959 231.604 53.547 231.836 53.0399C232.213 52.2163 232.271 51.5829 232.374 47.0987C232.482 42.4465 232.524 42.0172 232.941 41.2322ZM196.42 86.537C197.648 84.9596 199.294 82.8578 200.076 81.8662C200.858 80.8748 201.619 80.0911 201.766 80.1248C201.997 80.1775 207.677 87.2788 208.531 88.5816C208.601 88.6884 208.668 88.7565 208.698 88.8382C208.817 89.1607 208.363 89.6953 205.263 93.6706C204.104 95.156 201.898 97.9966 200.36 99.9831C197.303 103.932 196.413 104.705 194.454 105.115C192.98 105.424 191.692 105.199 190.376 104.404C189.501 103.876 188.801 103.104 186.807 100.468C181.006 92.8022 174.915 84.8587 174.45 84.3512C174.174 84.0504 174.01 83.7049 174.085 83.583C174.17 83.4464 175.065 83.3616 176.418 83.3616C178.952 83.3616 181.14 83.1264 184.388 82.5052C186.549 82.0916 186.714 82.0858 187.072 82.4092C187.281 82.5989 188.642 84.3177 190.096 86.2289C192.272 89.0898 192.83 89.7037 193.251 89.7051C193.533 89.7057 193.859 89.6386 193.975 89.5559C194.091 89.473 195.191 88.1146 196.42 86.537Z" fill="#963CBD"/>
</svg>
